<svg width="280" height="40" viewBox="0 0 280 40" fill="none" xmlns="http://www.w3.org/2000/svg">
<path d="M44.192 9.20799L41.696 8.82399V7.22399H45.952C46.72 7.22399 47.4773 7.19199 48.224 7.12799C49.376 7.04265 50.464 6.99999 51.488 6.99999C54.5813 7.02132 56.768 7.59732 58.048 8.72799C59.328 9.85866 59.968 11.5653 59.968 13.848C59.968 15.5547 59.5733 17.0373 58.784 18.296C57.9947 19.5547 56.896 20.5147 55.488 21.176C54.1013 21.8373 52.5013 22.168 50.688 22.168C50.0693 22.168 49.44 22.1573 48.8 22.136C48.16 22.0933 47.7653 22.0613 47.616 22.04V29.08L52 29.432V31H41.536V29.432L44.192 29.112V9.20799ZM47.616 20.28C48.2133 20.3867 49.2373 20.44 50.688 20.44C52.3733 20.44 53.7387 19.928 54.784 18.904C55.8507 17.88 56.384 16.2053 56.384 13.88C56.384 12.0453 55.9253 10.7333 55.008 9.94399C54.0907 9.13332 52.6613 8.72799 50.72 8.72799C50.0373 8.72799 49.312 8.77066 48.544 8.85599C48.0747 8.89866 47.7653 8.91999 47.616 8.91999V20.28ZM62.2853 29.432L64.6853 29.24V15.704L62.3813 15.128V13.4L66.7973 12.824H66.8613L67.5653 13.4V13.976L67.4693 16.472H67.5653C67.7786 16.1093 68.1626 15.64 68.7173 15.064C69.2719 14.488 69.9866 13.9653 70.8613 13.496C71.7359 13.0053 72.6853 12.76 73.7093 12.76C74.1359 12.76 74.4879 12.8133 74.7653 12.92V16.504C74.6159 16.3973 74.3706 16.3013 74.0293 16.216C73.7093 16.1093 73.3466 16.056 72.9413 16.056C71.1706 16.056 69.5279 16.6 68.0133 17.688V29.208L72.0773 29.464V31H62.2853V29.432ZM84.7495 31.352C82.1682 31.352 80.1948 30.5093 78.8295 28.824C77.4855 27.1387 76.8135 24.888 76.8135 22.072C76.8135 20.216 77.1655 18.584 77.8695 17.176C78.5735 15.768 79.5548 14.68 80.8135 13.912C82.0935 13.144 83.5442 12.76 85.1655 12.76C87.1495 12.76 88.6855 13.3147 89.7735 14.424C90.8828 15.512 91.4695 17.08 91.5335 19.128C91.5335 20.4293 91.4588 21.4213 91.3095 22.104H80.3015C80.3442 24.216 80.8348 25.9227 81.7735 27.224C82.7122 28.504 84.0455 29.144 85.7735 29.144C86.6268 29.144 87.5122 28.9947 88.4295 28.696C89.3682 28.376 90.0935 28.0027 90.6055 27.576L91.2135 28.984C90.5948 29.624 89.6775 30.1787 88.4615 30.648C87.2455 31.1173 86.0082 31.352 84.7495 31.352ZM88.0135 20.408C88.0775 19.96 88.1095 19.5013 88.1095 19.032C88.0882 17.6453 87.7895 16.5573 87.2135 15.768C86.6588 14.9573 85.7735 14.552 84.5575 14.552C83.3202 14.552 82.3282 15 81.5815 15.896C80.8562 16.792 80.4402 18.296 80.3335 20.408H88.0135ZM97.2598 28.44C97.4731 28.76 97.9211 29.048 98.6038 29.304C99.3078 29.56 100.044 29.688 100.812 29.688C102.028 29.688 102.924 29.4533 103.5 28.984C104.076 28.5147 104.364 27.864 104.364 27.032C104.364 26.456 104.182 25.9547 103.82 25.528C103.457 25.1013 102.945 24.728 102.284 24.408C101.644 24.0667 100.716 23.6613 99.4998 23.192C97.8571 22.5733 96.6518 21.8373 95.8838 20.984C95.1371 20.1093 94.7638 18.968 94.7638 17.56C94.7638 16.6213 95.0411 15.8 95.5958 15.096C96.1718 14.392 96.9504 13.848 97.9318 13.464C98.9344 13.0587 100.044 12.856 101.26 12.856C102.241 12.856 103.094 12.9307 103.82 13.08C104.566 13.2293 105.164 13.3787 105.612 13.528C106.06 13.6773 106.358 13.7733 106.508 13.816V17.784H104.556L103.916 15.416C103.788 15.16 103.446 14.9467 102.892 14.776C102.337 14.584 101.718 14.488 101.036 14.488C100.076 14.488 99.2971 14.7013 98.6998 15.128C98.1238 15.5547 97.8358 16.1307 97.8358 16.856C97.8358 17.496 97.9851 18.0293 98.2838 18.456C98.6038 18.8613 98.9984 19.192 99.4678 19.448C99.9371 19.704 100.577 20.0027 101.388 20.344L102.028 20.6C103.222 21.0693 104.193 21.5173 104.94 21.944C105.686 22.3707 106.305 22.936 106.796 23.64C107.308 24.3227 107.564 25.1653 107.564 26.168C107.564 27.7467 106.945 29.0053 105.708 29.944C104.492 30.8827 102.817 31.352 100.684 31.352C99.6384 31.352 98.5398 31.2133 97.3878 30.936C96.2571 30.6373 95.3291 30.3387 94.6038 30.04V25.944H96.6838L97.2598 28.44ZM114.216 10.04C113.533 10.04 113.021 9.84799 112.68 9.46399C112.339 9.07999 112.168 8.58932 112.168 7.99199C112.168 7.30932 112.371 6.74399 112.776 6.29599C113.203 5.84799 113.779 5.62399 114.504 5.62399C115.229 5.62399 115.763 5.81599 116.104 6.19999C116.445 6.58399 116.616 7.07466 116.616 7.67199C116.616 8.39732 116.403 8.97332 115.976 9.39999C115.571 9.82666 114.995 10.04 114.248 10.04H114.216ZM112.936 15.704L110.504 15.128V13.432L115.464 12.824H115.528L116.264 13.4V29.176L118.824 29.432V31H110.344V29.432L112.936 29.144V15.704ZM128.008 31.352C126.728 31.352 125.555 31.032 124.488 30.392C123.422 29.752 122.568 28.7707 121.928 27.448C121.31 26.1253 121 24.4933 121 22.552C121 20.7387 121.374 19.0853 122.12 17.592C122.867 16.0987 123.934 14.9253 125.32 14.072C126.728 13.1973 128.382 12.76 130.28 12.76C131.368 12.76 132.36 12.8773 133.256 13.112V7.12799L129.992 6.74399V5.36799L135.752 4.79199H135.848L136.552 5.30399V29.368H138.408V30.84C137.726 30.9893 137.128 31.1067 136.616 31.192C136.126 31.2773 135.603 31.32 135.048 31.32C134.494 31.32 134.099 31.224 133.864 31.032C133.63 30.84 133.512 30.4347 133.512 29.816V28.792C132.915 29.5173 132.126 30.1253 131.144 30.616C130.184 31.1067 129.139 31.352 128.008 31.352ZM129.288 29.08C130.12 29.08 130.899 28.8987 131.624 28.536C132.35 28.152 132.894 27.7147 133.256 27.224V15.512C133.086 15.256 132.68 15.032 132.04 14.84C131.422 14.6267 130.76 14.52 130.056 14.52C128.392 14.52 127.059 15.16 126.056 16.44C125.075 17.6987 124.584 19.6507 124.584 22.296C124.584 24.6 125.022 26.3067 125.896 27.416C126.771 28.5253 127.902 29.08 129.288 29.08ZM148.843 31.352C146.262 31.352 144.289 30.5093 142.923 28.824C141.579 27.1387 140.907 24.888 140.907 22.072C140.907 20.216 141.259 18.584 141.963 17.176C142.667 15.768 143.649 14.68 144.907 13.912C146.187 13.144 147.638 12.76 149.259 12.76C151.243 12.76 152.779 13.3147 153.867 14.424C154.977 15.512 155.563 17.08 155.627 19.128C155.627 20.4293 155.553 21.4213 155.403 22.104H144.395C144.438 24.216 144.929 25.9227 145.867 27.224C146.806 28.504 148.139 29.144 149.867 29.144C150.721 29.144 151.606 28.9947 152.523 28.696C153.462 28.376 154.187 28.0027 154.699 27.576L155.307 28.984C154.689 29.624 153.771 30.1787 152.555 30.648C151.339 31.1173 150.102 31.352 148.843 31.352ZM152.107 20.408C152.171 19.96 152.203 19.5013 152.203 19.032C152.182 17.6453 151.883 16.5573 151.307 15.768C150.753 14.9573 149.867 14.552 148.651 14.552C147.414 14.552 146.422 15 145.675 15.896C144.95 16.792 144.534 18.296 144.427 20.408H152.107ZM160.298 15.704L157.993 15.128V13.4L162.57 12.824H162.666L163.338 13.4V14.744L163.306 15.512C164.074 14.8293 165.087 14.2107 166.345 13.656C167.604 13.1013 168.81 12.824 169.962 12.824C171.306 12.824 172.34 13.08 173.066 13.592C173.812 14.104 174.335 14.8933 174.634 15.96C174.932 17.0053 175.082 18.424 175.082 20.216V29.176L177.322 29.4V31H169.738V29.432L171.722 29.176V20.184C171.722 18.9253 171.636 17.944 171.466 17.24C171.295 16.5147 170.975 15.9813 170.506 15.64C170.036 15.2773 169.354 15.096 168.458 15.096C167.69 15.096 166.868 15.288 165.994 15.672C165.119 16.056 164.34 16.504 163.658 17.016V29.144L165.834 29.432V31H158.282V29.432L160.298 29.144V15.704ZM185.1 31.32C183.884 31.32 182.977 31.0427 182.38 30.488C181.782 29.9333 181.484 28.984 181.484 27.64V15.352H179.18V13.912C179.286 13.8907 179.585 13.816 180.076 13.688C180.566 13.56 180.897 13.4427 181.068 13.336C181.409 13.144 181.676 12.76 181.868 12.184C182.038 11.7787 182.241 11.128 182.476 10.232C182.71 9.33599 182.849 8.80266 182.891 8.63199H184.78L184.844 13.24H190.188V15.352H184.844V25.176C184.844 26.392 184.876 27.2453 184.94 27.736C185.025 28.2267 185.185 28.5467 185.42 28.696C185.676 28.8453 186.102 28.92 186.7 28.92C187.276 28.92 187.905 28.8453 188.588 28.696C189.292 28.5467 189.836 28.3867 190.22 28.216L190.7 29.656C190.188 30.04 189.356 30.4133 188.204 30.776C187.073 31.1387 186.038 31.32 185.1 31.32ZM208.093 8.91999L202.589 9.11199L201.469 15.8H199.357L199.901 7.22399H219.837L220.221 15.8H218.205L217.149 9.11199L211.613 8.91999V29.112L216.157 29.432V31H203.933V29.432L208.093 29.112V8.91999ZM222.409 22.072C222.409 20.152 222.803 18.488 223.593 17.08C224.382 15.672 225.417 14.6053 226.697 13.88C227.998 13.1333 229.385 12.76 230.857 12.76C233.545 12.76 235.561 13.6133 236.905 15.32C238.27 17.0267 238.953 19.2667 238.953 22.04C238.953 23.9813 238.558 25.656 237.769 27.064C236.979 28.472 235.934 29.5387 234.633 30.264C233.353 30.9893 231.977 31.352 230.505 31.352C227.817 31.352 225.79 30.4987 224.425 28.792C223.081 27.0853 222.409 24.8453 222.409 22.072ZM230.697 29.528C232.169 29.528 233.299 28.92 234.089 27.704C234.878 26.488 235.273 24.6853 235.273 22.296C235.273 19.928 234.91 18.0507 234.185 16.664C233.459 15.2773 232.297 14.584 230.697 14.584C229.225 14.584 228.083 15.192 227.273 16.408C226.483 17.624 226.089 19.4267 226.089 21.816C226.089 24.184 226.462 26.0613 227.209 27.448C227.955 28.8347 229.118 29.528 230.697 29.528ZM248.79 31.352C247.51 31.352 246.336 31.032 245.27 30.392C244.203 29.752 243.35 28.7707 242.71 27.448C242.091 26.1253 241.782 24.4933 241.782 22.552C241.782 20.7387 242.155 19.0853 242.902 17.592C243.648 16.0987 244.715 14.9253 246.102 14.072C247.51 13.1973 249.163 12.76 251.062 12.76C252.15 12.76 253.142 12.8773 254.038 13.112V7.12799L250.774 6.74399V5.36799L256.534 4.79199H256.63L257.333 5.30399V29.368H259.19V30.84C258.507 30.9893 257.91 31.1067 257.398 31.192C256.907 31.2773 256.384 31.32 255.83 31.32C255.275 31.32 254.88 31.224 254.646 31.032C254.411 30.84 254.294 30.4347 254.294 29.816V28.792C253.696 29.5173 252.907 30.1253 251.926 30.616C250.966 31.1067 249.92 31.352 248.79 31.352ZM250.07 29.08C250.902 29.08 251.68 28.8987 252.406 28.536C253.131 28.152 253.675 27.7147 254.038 27.224V15.512C253.867 15.256 253.462 15.032 252.822 14.84C252.203 14.6267 251.542 14.52 250.838 14.52C249.174 14.52 247.84 15.16 246.838 16.44C245.856 17.6987 245.366 19.6507 245.366 22.296C245.366 24.6 245.803 26.3067 246.678 27.416C247.552 28.5253 248.683 29.08 250.07 29.08ZM261.753 22.072C261.753 20.152 262.147 18.488 262.937 17.08C263.726 15.672 264.761 14.6053 266.041 13.88C267.342 13.1333 268.729 12.76 270.201 12.76C272.889 12.76 274.905 13.6133 276.249 15.32C277.614 17.0267 278.297 19.2667 278.297 22.04C278.297 23.9813 277.902 25.656 277.113 27.064C276.323 28.472 275.278 29.5387 273.977 30.264C272.697 30.9893 271.321 31.352 269.849 31.352C267.161 31.352 265.134 30.4987 263.769 28.792C262.425 27.0853 261.753 24.8453 261.753 22.072ZM270.041 29.528C271.513 29.528 272.643 28.92 273.433 27.704C274.222 26.488 274.617 24.6853 274.617 22.296C274.617 19.928 274.254 18.0507 273.529 16.664C272.803 15.2773 271.641 14.584 270.041 14.584C268.569 14.584 267.427 15.192 266.617 16.408C265.827 17.624 265.433 19.4267 265.433 21.816C265.433 24.184 265.806 26.0613 266.553 27.448C267.299 28.8347 268.462 29.528 270.041 29.528Z" fill="#DADD56"/>
<path d="M3.17709 7.13832L1.28539 6.86073V5.70411H4.51099C5.09305 5.70411 5.66703 5.68097 6.23293 5.63471C7.10602 5.57302 7.93061 5.54218 8.70669 5.54218C11.0511 5.5576 12.7084 5.97398 13.6785 6.79133C14.6486 7.60868 15.1336 8.84242 15.1336 10.4925C15.1336 11.7263 14.8345 12.7981 14.2363 13.708C13.6381 14.6178 12.8054 15.3118 11.7383 15.7899C10.6873 16.2679 9.47469 16.507 8.10038 16.507C7.63149 16.507 7.15453 16.4993 6.66947 16.4839C6.18442 16.453 5.8853 16.4299 5.77213 16.4145V21.5036L9.09474 21.7581V22.8916H1.16412V21.7581L3.17709 21.5267V7.13832ZM5.77213 15.1422C6.22484 15.2193 7.00093 15.2578 8.10038 15.2578C9.37768 15.2578 10.4125 14.8877 11.2047 14.1475C12.0131 13.4072 12.4173 12.1966 12.4173 10.5157C12.4173 9.18941 12.0697 8.24097 11.3745 7.67037C10.6792 7.08435 9.59596 6.79133 8.12463 6.79133C7.60724 6.79133 7.05752 6.82218 6.47545 6.88386C6.11975 6.91471 5.8853 6.93013 5.77213 6.93013V15.1422Z" fill="#DADD56"/>
<path d="M14.1069 17.7735L9.93548 17.9123L9.08663 22.747H7.48596L7.89826 16.5475H23.0076L23.2987 22.747H21.7708L20.9704 17.9123L16.7747 17.7735V32.3701L20.2186 32.6014V33.7349H10.9541V32.6014L14.1069 32.3701V17.7735Z" fill="#DADD56"/>
</svg>
