<svg width="262" height="234" viewBox="0 0 262 234" fill="none" xmlns="http://www.w3.org/2000/svg">
<path d="M22.4926 0.998856L13.8324 15.9989H31.1529L22.4926 0.998856ZM23.9926 206.985L23.9926 14.4989H20.9926L20.9926 206.985H23.9926Z" fill="white"/>
<path d="M261.997 205.882L246.997 197.222V214.543L261.997 205.882ZM21.9968 207.382H248.497V204.382H21.9968V207.382Z" fill="white"/>
<path d="M4.016 66.904V65.224H7.296V66.904H4.016ZM7.296 63.144V64.76H4.016V63.144H7.296ZM11.936 63.144V64.76H8.608V63.144H11.936ZM8.608 66.904V65.224H11.936V66.904H8.608ZM12.896 71.288H8.608V69.464H13.92C14.144 69.464 14.304 69.384 14.352 69.208C13.776 68.696 12.864 68.04 12.864 68.04L12.048 69H8.608V67.352H11.936V67.928H12.128C12.56 67.928 13.2 67.656 13.232 67.56V63.384C13.552 63.32 13.776 63.176 13.888 63.048L12.432 61.944L11.776 62.68H8.608V61.192H14.736C14.96 61.192 15.136 61.112 15.152 60.936C14.576 60.424 13.6 59.704 13.6 59.704L12.768 60.712H8.608V59.192C10.096 59.064 11.488 58.888 12.64 58.712C13.056 58.888 13.36 58.888 13.52 58.76L12.272 57.512C9.936 58.2 5.488 58.952 1.936 59.224L1.984 59.528C3.712 59.528 5.536 59.448 7.296 59.304V60.712H0.88L1.024 61.192H7.296V62.68H4.096L2.72 62.088V68.12H2.912C3.456 68.12 4.016 67.816 4.016 67.688V67.352H7.296V69H1.872L2 69.464H7.296V71.288H0.624L0.768 71.736H14.976C15.184 71.736 15.36 71.672 15.392 71.496C14.8 70.952 13.76 70.168 13.76 70.168L12.896 71.288ZM10.16 89.632C9.808 90.624 9.28 91.44 8.576 92.128C7.552 91.936 6.384 91.776 5.024 91.648C5.504 91.008 6.032 90.288 6.496 89.632H10.16ZM3.552 84.096H5.648V86.656H3.552V84.096ZM6.896 82H9.008V83.632H6.896V82ZM12.416 84.096V86.656H10.272V84.096H12.416ZM6.896 86.656V84.096H9.008V86.656H6.896ZM13.008 89.152H6.816C7.184 88.64 7.472 88.192 7.68 87.856C8.112 87.872 8.304 87.728 8.368 87.52L6.624 87.104H12.416V87.872H12.624C13.04 87.872 13.664 87.616 13.68 87.52V84.336C14 84.272 14.256 84.128 14.368 84L12.928 82.928L12.256 83.632H10.272V82H14.848C15.072 82 15.216 81.92 15.264 81.744C14.672 81.248 13.744 80.56 13.744 80.56L12.912 81.536H0.768L0.88 82H5.648V83.632H3.68L2.304 83.056V88.048H2.48C2.992 88.048 3.552 87.76 3.552 87.648V87.104H6.544C6.288 87.6 5.824 88.352 5.296 89.152H0.624L0.768 89.632H4.976C4.208 90.736 3.344 91.888 2.72 92.576C3.184 92.864 3.728 92.96 4.064 92.88C4.272 92.624 4.512 92.32 4.752 92C5.856 92.24 6.848 92.496 7.76 92.784C6.144 93.904 3.824 94.56 0.656 95.008L0.72 95.296C4.64 94.992 7.232 94.384 9.008 93.184C10.736 93.792 12.08 94.432 13.04 95.088C14.416 95.92 15.888 93.792 9.952 92.4C10.704 91.664 11.264 90.752 11.696 89.632H14.976C15.184 89.632 15.344 89.552 15.392 89.376C14.816 88.832 13.84 88.128 13.84 88.128L13.008 89.152ZM10.272 108.696V110.728H7.392V108.696H10.272ZM3.408 108.696H6.192V112.056H6.4C6.864 112.056 7.392 111.8 7.392 111.672V111.192H10.272V111.96H10.48C10.96 111.96 11.52 111.688 11.52 111.56V108.696H14.832C15.072 108.696 15.2 108.616 15.248 108.44C14.72 107.944 13.84 107.24 13.84 107.24L13.072 108.232H11.52V107.144C11.92 107.08 12.032 106.936 12.064 106.728L10.272 106.568V108.232H7.392V107.144C7.792 107.08 7.936 106.936 7.968 106.728L6.192 106.568V108.232H3.408V106.056H14.864C15.088 106.056 15.232 105.976 15.28 105.8C14.72 105.256 13.76 104.504 13.76 104.504L12.928 105.576H9.024V104.152C9.44 104.104 9.584 103.944 9.616 103.72L7.776 103.544V105.576H3.632L2.16 104.936V109.624C2.16 112.488 2.048 115.608 0.624 118.088L0.864 118.232C3.264 115.832 3.408 112.28 3.408 109.624V108.696ZM11.104 113.144C10.56 113.992 9.808 114.728 8.896 115.384C7.84 114.824 6.96 114.088 6.336 113.144H11.104ZM12.032 112.008L11.2 112.68H3.968L4.096 113.144H5.952C6.48 114.28 7.2 115.192 8.096 115.912C6.496 116.856 4.528 117.56 2.336 118.024L2.432 118.28C4.96 117.976 7.12 117.384 8.88 116.472C10.368 117.4 12.224 117.944 14.448 118.28C14.576 117.672 14.944 117.24 15.488 117.112L15.504 116.92C13.424 116.776 11.536 116.456 9.952 115.848C11.008 115.16 11.888 114.328 12.592 113.336C13.008 113.32 13.184 113.272 13.312 113.128L12.032 112.008Z" fill="white"/>
<path d="M122.288 216.936V217.992H120.752V216.936H122.288ZM124.544 218.456V219.816H120.752V218.456H124.544ZM122.288 221.496H120.752V220.264H122.288V221.496ZM120.752 221.944H124.56C124.24 222.456 123.696 223.128 123.184 223.688C122.704 223.464 122.016 223.32 121.12 223.304L121.008 223.464C121.824 223.864 122.928 224.648 123.392 225.304C124.224 225.608 124.608 224.664 123.696 223.976C124.4 223.64 125.152 223.256 125.584 222.936C125.84 223.016 126.016 222.984 126.096 222.856L124.624 221.944H126.256C126.48 221.944 126.64 221.864 126.688 221.704C126.144 221.24 125.312 220.616 125.312 220.616L124.576 221.496H123.36V220.264H124.544V220.536H124.736C125.104 220.536 125.664 220.312 125.68 220.216V218.584C125.936 218.536 126.16 218.424 126.24 218.328L124.992 217.384L124.4 217.992H123.36V216.936H125.84C126.064 216.936 126.224 216.856 126.256 216.68C125.744 216.216 124.944 215.576 124.944 215.576L124.208 216.472H120.944L119.552 215.896V223.032H119.76C120.368 223.032 120.752 222.744 120.752 222.632V221.944ZM119.232 230.072C120.976 229.64 122.848 228.808 123.888 228.088C124.24 228.168 124.368 228.12 124.496 227.976L123.04 227C122.208 227.928 120.544 229.144 119.088 229.848L119.232 230.072ZM127.584 227.368C128.88 227.928 130.736 229.064 131.52 230.008C132.976 230.376 132.896 227.576 127.696 227.16L127.584 227.368ZM128.736 224.552C129.248 224.824 129.84 225.24 130.368 225.688C128.368 225.72 126.432 225.752 124.72 225.768C126.224 225.096 127.792 224.28 128.736 223.656C129.088 223.752 129.232 223.688 129.36 223.528L127.888 222.632C126.96 223.512 125.264 224.808 123.776 225.768C121.76 225.784 120.096 225.784 119.04 225.768L119.824 227.208C119.984 227.176 120.16 227.064 120.272 226.872C122.176 226.744 123.856 226.632 125.36 226.52V230.28H125.568C126.224 230.28 126.624 230.04 126.624 229.976V226.424C128.24 226.296 129.616 226.168 130.768 226.056C131.152 226.424 131.472 226.792 131.664 227.144C133.008 227.672 133.248 224.984 128.88 224.392L128.736 224.552ZM131.072 217.048C130.688 218.04 130.144 218.984 129.408 219.832C128.656 219.096 128.064 218.168 127.696 217.048H131.072ZM131.824 215.864L131.056 216.6H126.432L126.576 217.048H127.344C127.68 218.44 128.16 219.56 128.8 220.472C128.032 221.24 127.104 221.896 126.048 222.408L126.192 222.648C127.392 222.248 128.416 221.72 129.296 221.096C130.112 222.008 131.152 222.696 132.448 223.24C132.624 222.632 133.008 222.264 133.52 222.152L133.552 221.992C132.24 221.656 131.072 221.144 130.128 220.44C131.168 219.512 131.952 218.408 132.48 217.208C132.864 217.176 133.024 217.128 133.136 217L131.824 215.864ZM142.864 217.416C142.576 217.992 142.144 218.744 141.744 219.32H138.032C138.704 218.728 139.312 218.072 139.84 217.416H142.864ZM145.792 219.8V221.544H137.28L137.424 221.992H145.792V223.8H136.832L136.976 224.28H145.792V225.016H145.984C146.432 225.016 147.056 224.728 147.072 224.616V220.024C147.408 219.96 147.632 219.832 147.744 219.704L146.304 218.6L145.632 219.32H142.272C143.072 218.808 143.888 218.088 144.448 217.608C144.784 217.576 144.96 217.544 145.088 217.432L143.696 216.168L142.88 216.968H140.176C140.368 216.712 140.544 216.44 140.704 216.184C141.12 216.216 141.232 216.152 141.296 215.976L139.312 215.448C138.48 217.512 136.736 219.848 134.928 221.144L135.088 221.336C135.92 220.936 136.72 220.408 137.472 219.8H145.792ZM140.608 224.936C141.472 225.464 142.496 226.472 142.8 227.352C144.144 228.088 144.784 225.32 140.752 224.792L140.608 224.936ZM137.024 225.512C136.88 226.712 135.968 227.72 135.216 228.104C134.864 228.296 134.608 228.664 134.752 229.048C134.96 229.48 135.584 229.48 136.064 229.16C136.8 228.712 137.664 227.448 137.296 225.544L137.024 225.512ZM145.648 226.84H145.44C145.232 227.688 145.04 228.344 144.896 228.6C144.8 228.744 144.736 228.792 144.496 228.808C144.256 228.824 143.568 228.824 142.72 228.824H140.752C140.064 228.824 139.984 228.76 139.984 228.536V225.72C140.288 225.672 140.448 225.528 140.464 225.336L138.736 225.16V228.776C138.736 229.736 139.04 229.96 140.56 229.96H142.64C145.616 229.96 146.208 229.752 146.208 229.176C146.208 228.92 146.08 228.792 145.68 228.648L145.648 226.84ZM145.472 225.544C146.544 226.376 147.776 227.816 148.096 229.016C149.568 229.992 150.464 226.728 145.616 225.416L145.472 225.544ZM160.272 220.696V222.728H157.392V220.696H160.272ZM153.408 220.696H156.192V224.056H156.4C156.864 224.056 157.392 223.8 157.392 223.672V223.192H160.272V223.96H160.48C160.96 223.96 161.52 223.688 161.52 223.56V220.696H164.832C165.072 220.696 165.2 220.616 165.248 220.44C164.72 219.944 163.84 219.24 163.84 219.24L163.072 220.232H161.52V219.144C161.92 219.08 162.032 218.936 162.064 218.728L160.272 218.568V220.232H157.392V219.144C157.792 219.08 157.936 218.936 157.968 218.728L156.192 218.568V220.232H153.408V218.056H164.864C165.088 218.056 165.232 217.976 165.28 217.8C164.72 217.256 163.76 216.504 163.76 216.504L162.928 217.576H159.024V216.152C159.44 216.104 159.584 215.944 159.616 215.72L157.776 215.544V217.576H153.632L152.16 216.936V221.624C152.16 224.488 152.048 227.608 150.624 230.088L150.864 230.232C153.264 227.832 153.408 224.28 153.408 221.624V220.696ZM161.104 225.144C160.56 225.992 159.808 226.728 158.896 227.384C157.84 226.824 156.96 226.088 156.336 225.144H161.104ZM162.032 224.008L161.2 224.68H153.968L154.096 225.144H155.952C156.48 226.28 157.2 227.192 158.096 227.912C156.496 228.856 154.528 229.56 152.336 230.024L152.432 230.28C154.96 229.976 157.12 229.384 158.88 228.472C160.368 229.4 162.224 229.944 164.448 230.28C164.576 229.672 164.944 229.24 165.488 229.112L165.504 228.92C163.424 228.776 161.536 228.456 159.952 227.848C161.008 227.16 161.888 226.328 162.592 225.336C163.008 225.32 163.184 225.272 163.312 225.128L162.032 224.008Z" fill="white"/>
<rect width="100" height="80" transform="translate(38 113)" fill="#D6D5FA"/>
<path d="M66.008 143.952V143.112H67.648V143.952H66.008ZM67.648 142.072V142.88H66.008V142.072H67.648ZM69.968 142.072V142.88H68.304V142.072H69.968ZM68.304 143.952V143.112H69.968V143.952H68.304ZM70.448 146.144H68.304V145.232H70.96C71.072 145.232 71.152 145.192 71.176 145.104C70.888 144.848 70.432 144.52 70.432 144.52L70.024 145H68.304V144.176H69.968V144.464H70.064C70.28 144.464 70.6 144.328 70.616 144.28V142.192C70.776 142.16 70.888 142.088 70.944 142.024L70.216 141.472L69.888 141.84H68.304V141.096H71.368C71.48 141.096 71.568 141.056 71.576 140.968C71.288 140.712 70.8 140.352 70.8 140.352L70.384 140.856H68.304V140.096C69.048 140.032 69.744 139.944 70.32 139.856C70.528 139.944 70.68 139.944 70.76 139.88L70.136 139.256C68.968 139.6 66.744 139.976 64.968 140.112L64.992 140.264C65.856 140.264 66.768 140.224 67.648 140.152V140.856H64.44L64.512 141.096H67.648V141.84H66.048L65.36 141.544V144.56H65.456C65.728 144.56 66.008 144.408 66.008 144.344V144.176H67.648V145H64.936L65 145.232H67.648V146.144H64.312L64.384 146.368H71.488C71.592 146.368 71.68 146.336 71.696 146.248C71.4 145.976 70.88 145.584 70.88 145.584L70.448 146.144ZM77.08 143.816C76.904 144.312 76.64 144.72 76.288 145.064C75.776 144.968 75.192 144.888 74.512 144.824C74.752 144.504 75.016 144.144 75.248 143.816H77.08ZM73.776 141.048H74.824V142.328H73.776V141.048ZM75.448 140H76.504V140.816H75.448V140ZM78.208 141.048V142.328H77.136V141.048H78.208ZM75.448 142.328V141.048H76.504V142.328H75.448ZM78.504 143.576H75.408C75.592 143.32 75.736 143.096 75.84 142.928C76.056 142.936 76.152 142.864 76.184 142.76L75.312 142.552H78.208V142.936H78.312C78.52 142.936 78.832 142.808 78.84 142.76V141.168C79 141.136 79.128 141.064 79.184 141L78.464 140.464L78.128 140.816H77.136V140H79.424C79.536 140 79.608 139.96 79.632 139.872C79.336 139.624 78.872 139.28 78.872 139.28L78.456 139.768H72.384L72.44 140H74.824V140.816H73.84L73.152 140.528V143.024H73.24C73.496 143.024 73.776 142.88 73.776 142.824V142.552H75.272C75.144 142.8 74.912 143.176 74.648 143.576H72.312L72.384 143.816H74.488C74.104 144.368 73.672 144.944 73.36 145.288C73.592 145.432 73.864 145.48 74.032 145.44C74.136 145.312 74.256 145.16 74.376 145C74.928 145.12 75.424 145.248 75.88 145.392C75.072 145.952 73.912 146.28 72.328 146.504L72.36 146.648C74.32 146.496 75.616 146.192 76.504 145.592C77.368 145.896 78.04 146.216 78.52 146.544C79.208 146.96 79.944 145.896 76.976 145.2C77.352 144.832 77.632 144.376 77.848 143.816H79.488C79.592 143.816 79.672 143.776 79.696 143.688C79.408 143.416 78.92 143.064 78.92 143.064L78.504 143.576ZM80.448 141.008C80.44 141.128 80.424 141.264 80.448 141.408C80.504 141.72 80.952 142.12 81.264 142.12C81.448 142.12 81.616 141.976 81.776 141.896C82.256 141.656 83.384 141.272 84.288 141.056C84.376 141.04 84.384 141.088 84.328 141.128C83.424 141.816 83.064 142.856 83.064 143.856C83.064 144.792 83.352 145.296 83.864 145.656C84.4 146.04 85.136 146.088 85.64 146.088C86.008 146.088 86.272 146.008 86.272 145.768C86.272 145.544 85.984 145.368 85.768 145.368C85.472 145.368 84.784 145.416 84.28 145.12C83.968 144.936 83.6 144.592 83.6 143.704C83.6 142.176 84.36 141.456 84.696 141.248C85.112 140.984 85.648 140.936 86.024 140.936C86.304 140.936 86.544 140.96 86.72 140.96C86.92 140.96 87.032 140.848 87.032 140.712C87.032 140.568 86.936 140.464 86.752 140.384C86.6 140.312 86.376 140.28 86.152 140.28C85.888 140.28 85.2 140.416 84.304 140.632C82.96 140.944 81.528 141.36 81.088 141.36C80.904 141.36 80.696 141.168 80.576 140.96L80.448 141.008ZM86.144 141.6C86.52 141.864 86.704 142.072 86.88 142.264C87.04 142.464 87.128 142.632 87.264 142.632C87.4 142.632 87.472 142.552 87.472 142.408C87.472 142.232 87.392 142.08 87.184 141.912C86.984 141.744 86.648 141.6 86.232 141.464L86.144 141.6ZM85.424 142.128C85.776 142.392 85.992 142.656 86.152 142.864C86.312 143.064 86.4 143.232 86.52 143.232C86.656 143.232 86.744 143.136 86.744 142.992C86.744 142.84 86.672 142.696 86.488 142.528C86.272 142.328 85.936 142.152 85.528 141.992L85.424 142.128ZM90.432 143.056C90.24 143.464 89.808 144.472 89.632 144.744C89.56 144.856 89.488 144.848 89.44 144.744C89.36 144.592 89.312 144.376 89.312 144.008C89.312 143.184 89.64 142.36 89.856 141.888C90.048 141.44 90.168 141.288 90.168 141.104C90.168 140.728 89.776 140.312 89.592 140.176C89.432 140.048 89.32 140 89.12 139.928L89 140.024C89.264 140.328 89.456 140.608 89.456 140.92C89.448 141.208 89.36 141.504 89.256 141.888C89.12 142.368 88.88 143.216 88.88 144.104C88.88 144.944 89.112 145.672 89.352 146.008C89.48 146.2 89.616 146.336 89.776 146.336C89.96 146.336 90.056 146.216 90.056 146.032C90.056 145.816 89.936 145.56 89.936 145.304C89.936 145.176 89.976 145.008 90.048 144.736C90.152 144.448 90.472 143.568 90.624 143.144L90.432 143.056ZM93.4 144.696C93.4 145.312 93.24 145.624 92.384 145.624C91.936 145.624 91.576 145.48 91.576 145.136C91.576 144.768 92.088 144.568 92.568 144.568C92.872 144.568 93.152 144.6 93.4 144.664V144.696ZM93.808 142.096C94.264 142.008 94.656 141.896 94.864 141.824C95.152 141.712 95.272 141.648 95.272 141.464C95.272 141.28 94.992 141.176 94.8 141.176C94.728 141.176 94.592 141.272 94.184 141.416C94.088 141.456 93.968 141.496 93.824 141.544C93.84 141.296 93.864 141.072 93.896 140.912C93.952 140.584 94.024 140.528 94.024 140.352C94.024 140.16 93.584 139.92 93.184 139.92C92.992 139.92 92.736 140.032 92.56 140.12L92.576 140.272C92.784 140.288 92.984 140.32 93.144 140.368C93.264 140.408 93.304 140.448 93.304 140.672C93.304 140.864 93.304 141.28 93.304 141.664C93.024 141.72 92.72 141.752 92.384 141.752C91.968 141.752 91.624 141.6 91.28 141.352L91.168 141.456C91.592 142.152 91.944 142.248 92.44 142.248C92.72 142.248 93.016 142.224 93.304 142.184C93.312 142.832 93.36 143.632 93.384 144.192C93.224 144.168 93.048 144.16 92.864 144.16C91.984 144.16 91.248 144.48 91.248 145.184C91.248 145.8 91.84 146.144 92.552 146.144C93.56 146.144 93.968 145.72 93.968 145.064C93.968 145.008 93.968 144.944 93.96 144.88C94.28 145.04 94.56 145.256 94.832 145.52C95.016 145.688 95.12 145.792 95.256 145.792C95.416 145.792 95.504 145.68 95.504 145.488C95.504 145.336 95.416 145.176 95.248 145.024C95 144.784 94.568 144.472 93.92 144.296C93.872 143.72 93.808 142.976 93.808 142.176V142.096ZM98.248 139.888C98.352 139.912 98.496 139.96 98.616 140.024C98.752 140.096 98.8 140.168 98.792 140.336C98.784 140.536 98.736 140.848 98.664 141.152C98.448 141.192 98.192 141.232 97.96 141.232C97.424 141.232 97.224 141.056 96.88 140.776L96.744 140.872C96.992 141.528 97.272 141.744 97.896 141.744C98.088 141.744 98.296 141.728 98.504 141.704C98.144 142.832 97.512 143.768 97.008 144.416C96.896 144.56 96.856 144.688 96.856 144.84C96.856 145.024 96.952 145.216 97.144 145.216C97.312 145.216 97.424 145.064 97.568 144.856C98.208 143.896 98.752 142.456 99.032 141.616C99.56 141.504 100.048 141.336 100.304 141.192C100.408 141.128 100.568 141.024 100.568 140.872C100.568 140.704 100.416 140.592 100.24 140.592C100.104 140.592 99.936 140.768 99.216 141C99.496 140.072 99.544 139.896 99.4 139.8C99.256 139.704 99.008 139.648 98.776 139.648C98.6 139.648 98.384 139.704 98.248 139.76V139.888ZM100.848 145.024C100.848 145.496 100.632 145.84 99.912 145.84C99.336 145.84 99.088 145.632 99.088 145.352C99.088 145.08 99.44 144.776 100.152 144.776C100.4 144.776 100.632 144.8 100.848 144.84C100.848 144.904 100.848 144.968 100.848 145.024ZM101.136 141.32C101.496 141.336 101.816 141.408 102.024 141.576C102.144 141.664 102.176 141.76 102.048 141.84C101.776 141.968 101.4 142.104 101.136 142.392C100.88 142.656 100.768 142.968 100.768 143.432C100.768 143.72 100.8 144.048 100.816 144.376C100.712 144.368 100.6 144.36 100.488 144.36C99.4 144.36 98.76 144.848 98.76 145.464C98.76 145.968 99.224 146.384 100.072 146.384C100.92 146.384 101.424 146 101.424 145.328C101.424 145.232 101.416 145.128 101.408 145.016C101.816 145.184 102.152 145.424 102.424 145.688C102.632 145.872 102.744 146.04 102.912 146.04C103.056 146.04 103.168 145.928 103.168 145.728C103.168 145.48 102.944 145.224 102.528 144.968C102.232 144.776 101.84 144.576 101.344 144.464C101.288 143.992 101.2 143.52 101.184 143.288C101.168 142.984 101.184 142.728 101.344 142.552C101.504 142.376 101.784 142.28 102.048 142.248C102.416 142.232 102.576 142.4 102.8 142.4C102.984 142.4 103.064 142.264 103.064 142.064C103.064 141.704 102.784 141.376 102.288 141.2C101.976 141.088 101.552 141.056 101.136 141.144V141.32ZM105.224 143.288C105.272 144.752 106.072 145.456 106.704 145.728C107.08 145.88 107.344 145.736 107.344 145.48C107.344 145.28 107.216 145.256 107.272 144.864C107.304 144.608 107.544 143.936 107.728 143.384L107.528 143.296C107.288 143.8 107.008 144.368 106.752 144.744C106.68 144.848 106.584 144.864 106.464 144.808C106.144 144.648 105.712 144.152 105.712 143.232C105.712 142.36 106.032 141.872 106.032 141.504C106.032 141.16 105.592 140.776 105.272 140.632C105.096 140.56 104.896 140.536 104.696 140.512L104.632 140.624C105.16 141.016 105.256 141.248 105.256 141.688C105.256 142.104 105.2 142.696 105.224 143.288ZM110.24 142.536C110.544 143.136 110.584 143.752 110.648 144.096C110.688 144.288 110.808 144.384 110.952 144.384C111.208 144.384 111.336 144.208 111.336 143.84C111.336 143.28 111.104 142.52 110.64 142.056C110.24 141.664 109.832 141.384 109.048 141.272L108.992 141.448C109.552 141.672 109.984 142.032 110.24 142.536ZM66.144 161.968V162.496H65.376V161.968H66.144ZM67.272 162.728V163.408H65.376V162.728H67.272ZM66.144 164.248H65.376V163.632H66.144V164.248ZM65.376 164.472H67.28C67.12 164.728 66.848 165.064 66.592 165.344C66.352 165.232 66.008 165.16 65.56 165.152L65.504 165.232C65.912 165.432 66.464 165.824 66.696 166.152C67.112 166.304 67.304 165.832 66.848 165.488C67.2 165.32 67.576 165.128 67.792 164.968C67.92 165.008 68.008 164.992 68.048 164.928L67.312 164.472H68.128C68.24 164.472 68.32 164.432 68.344 164.352C68.072 164.12 67.656 163.808 67.656 163.808L67.288 164.248H66.68V163.632H67.272V163.768H67.368C67.552 163.768 67.832 163.656 67.84 163.608V162.792C67.968 162.768 68.08 162.712 68.12 162.664L67.496 162.192L67.2 162.496H66.68V161.968H67.92C68.032 161.968 68.112 161.928 68.128 161.84C67.872 161.608 67.472 161.288 67.472 161.288L67.104 161.736H65.472L64.776 161.448V165.016H64.88C65.184 165.016 65.376 164.872 65.376 164.816V164.472ZM64.616 168.536C65.488 168.32 66.424 167.904 66.944 167.544C67.12 167.584 67.184 167.56 67.248 167.488L66.52 167C66.104 167.464 65.272 168.072 64.544 168.424L64.616 168.536ZM68.792 167.184C69.44 167.464 70.368 168.032 70.76 168.504C71.488 168.688 71.448 167.288 68.848 167.08L68.792 167.184ZM69.368 165.776C69.624 165.912 69.92 166.12 70.184 166.344C69.184 166.36 68.216 166.376 67.36 166.384C68.112 166.048 68.896 165.64 69.368 165.328C69.544 165.376 69.616 165.344 69.68 165.264L68.944 164.816C68.48 165.256 67.632 165.904 66.888 166.384C65.88 166.392 65.048 166.392 64.52 166.384L64.912 167.104C64.992 167.088 65.08 167.032 65.136 166.936C66.088 166.872 66.928 166.816 67.68 166.76V168.64H67.784C68.112 168.64 68.312 168.52 68.312 168.488V166.712C69.12 166.648 69.808 166.584 70.384 166.528C70.576 166.712 70.736 166.896 70.832 167.072C71.504 167.336 71.624 165.992 69.44 165.696L69.368 165.776ZM70.536 162.024C70.344 162.52 70.072 162.992 69.704 163.416C69.328 163.048 69.032 162.584 68.848 162.024H70.536ZM70.912 161.432L70.528 161.8H68.216L68.288 162.024H68.672C68.84 162.72 69.08 163.28 69.4 163.736C69.016 164.12 68.552 164.448 68.024 164.704L68.096 164.824C68.696 164.624 69.208 164.36 69.648 164.048C70.056 164.504 70.576 164.848 71.224 165.12C71.312 164.816 71.504 164.632 71.76 164.576L71.776 164.496C71.12 164.328 70.536 164.072 70.064 163.72C70.584 163.256 70.976 162.704 71.24 162.104C71.432 162.088 71.512 162.064 71.568 162L70.912 161.432ZM76.432 162.208C76.288 162.496 76.072 162.872 75.872 163.16H74.016C74.352 162.864 74.656 162.536 74.92 162.208H76.432ZM77.896 163.4V164.272H73.64L73.712 164.496H77.896V165.4H73.416L73.488 165.64H77.896V166.008H77.992C78.216 166.008 78.528 165.864 78.536 165.808V163.512C78.704 163.48 78.816 163.416 78.872 163.352L78.152 162.8L77.816 163.16H76.136C76.536 162.904 76.944 162.544 77.224 162.304C77.392 162.288 77.48 162.272 77.544 162.216L76.848 161.584L76.44 161.984H75.088C75.184 161.856 75.272 161.72 75.352 161.592C75.56 161.608 75.616 161.576 75.648 161.488L74.656 161.224C74.24 162.256 73.368 163.424 72.464 164.072L72.544 164.168C72.96 163.968 73.36 163.704 73.736 163.4H77.896ZM75.304 165.968C75.736 166.232 76.248 166.736 76.4 167.176C77.072 167.544 77.392 166.16 75.376 165.896L75.304 165.968ZM73.512 166.256C73.44 166.856 72.984 167.36 72.608 167.552C72.432 167.648 72.304 167.832 72.376 168.024C72.48 168.24 72.792 168.24 73.032 168.08C73.4 167.856 73.832 167.224 73.648 166.272L73.512 166.256ZM77.824 166.92H77.72C77.616 167.344 77.52 167.672 77.448 167.8C77.4 167.872 77.368 167.896 77.248 167.904C77.128 167.912 76.784 167.912 76.36 167.912H75.376C75.032 167.912 74.992 167.88 74.992 167.768V166.36C75.144 166.336 75.224 166.264 75.232 166.168L74.368 166.08V167.888C74.368 168.368 74.52 168.48 75.28 168.48H76.32C77.808 168.48 78.104 168.376 78.104 168.088C78.104 167.96 78.04 167.896 77.84 167.824L77.824 166.92ZM77.736 166.272C78.272 166.688 78.888 167.408 79.048 168.008C79.784 168.496 80.232 166.864 77.808 166.208L77.736 166.272ZM80.448 163.008C80.44 163.128 80.424 163.264 80.448 163.408C80.504 163.72 80.952 164.12 81.264 164.12C81.448 164.12 81.616 163.976 81.776 163.896C82.256 163.656 83.384 163.272 84.288 163.056C84.376 163.04 84.384 163.088 84.328 163.128C83.424 163.816 83.064 164.856 83.064 165.856C83.064 166.792 83.352 167.296 83.864 167.656C84.4 168.04 85.136 168.088 85.64 168.088C86.008 168.088 86.272 168.008 86.272 167.768C86.272 167.544 85.984 167.368 85.768 167.368C85.472 167.368 84.784 167.416 84.28 167.12C83.968 166.936 83.6 166.592 83.6 165.704C83.6 164.176 84.36 163.456 84.696 163.248C85.112 162.984 85.648 162.936 86.024 162.936C86.304 162.936 86.544 162.96 86.72 162.96C86.92 162.96 87.032 162.848 87.032 162.712C87.032 162.568 86.936 162.464 86.752 162.384C86.6 162.312 86.376 162.28 86.152 162.28C85.888 162.28 85.2 162.416 84.304 162.632C82.96 162.944 81.528 163.36 81.088 163.36C80.904 163.36 80.696 163.168 80.576 162.96L80.448 163.008ZM86.144 163.6C86.52 163.864 86.704 164.072 86.88 164.264C87.04 164.464 87.128 164.632 87.264 164.632C87.4 164.632 87.472 164.552 87.472 164.408C87.472 164.232 87.392 164.08 87.184 163.912C86.984 163.744 86.648 163.6 86.232 163.464L86.144 163.6ZM85.424 164.128C85.776 164.392 85.992 164.656 86.152 164.864C86.312 165.064 86.4 165.232 86.52 165.232C86.656 165.232 86.744 165.136 86.744 164.992C86.744 164.84 86.672 164.696 86.488 164.528C86.272 164.328 85.936 164.152 85.528 163.992L85.424 164.128ZM90.432 165.056C90.24 165.464 89.808 166.472 89.632 166.744C89.56 166.856 89.488 166.848 89.44 166.744C89.36 166.592 89.312 166.376 89.312 166.008C89.312 165.184 89.64 164.36 89.856 163.888C90.048 163.44 90.168 163.288 90.168 163.104C90.168 162.728 89.776 162.312 89.592 162.176C89.432 162.048 89.32 162 89.12 161.928L89 162.024C89.264 162.328 89.456 162.608 89.456 162.92C89.448 163.208 89.36 163.504 89.256 163.888C89.12 164.368 88.88 165.216 88.88 166.104C88.88 166.944 89.112 167.672 89.352 168.008C89.48 168.2 89.616 168.336 89.776 168.336C89.96 168.336 90.056 168.216 90.056 168.032C90.056 167.816 89.936 167.56 89.936 167.304C89.936 167.176 89.976 167.008 90.048 166.736C90.152 166.448 90.472 165.568 90.624 165.144L90.432 165.056ZM93.4 166.696C93.4 167.312 93.24 167.624 92.384 167.624C91.936 167.624 91.576 167.48 91.576 167.136C91.576 166.768 92.088 166.568 92.568 166.568C92.872 166.568 93.152 166.6 93.4 166.664V166.696ZM93.808 164.096C94.264 164.008 94.656 163.896 94.864 163.824C95.152 163.712 95.272 163.648 95.272 163.464C95.272 163.28 94.992 163.176 94.8 163.176C94.728 163.176 94.592 163.272 94.184 163.416C94.088 163.456 93.968 163.496 93.824 163.544C93.84 163.296 93.864 163.072 93.896 162.912C93.952 162.584 94.024 162.528 94.024 162.352C94.024 162.16 93.584 161.92 93.184 161.92C92.992 161.92 92.736 162.032 92.56 162.12L92.576 162.272C92.784 162.288 92.984 162.32 93.144 162.368C93.264 162.408 93.304 162.448 93.304 162.672C93.304 162.864 93.304 163.28 93.304 163.664C93.024 163.72 92.72 163.752 92.384 163.752C91.968 163.752 91.624 163.6 91.28 163.352L91.168 163.456C91.592 164.152 91.944 164.248 92.44 164.248C92.72 164.248 93.016 164.224 93.304 164.184C93.312 164.832 93.36 165.632 93.384 166.192C93.224 166.168 93.048 166.16 92.864 166.16C91.984 166.16 91.248 166.48 91.248 167.184C91.248 167.8 91.84 168.144 92.552 168.144C93.56 168.144 93.968 167.72 93.968 167.064C93.968 167.008 93.968 166.944 93.96 166.88C94.28 167.04 94.56 167.256 94.832 167.52C95.016 167.688 95.12 167.792 95.256 167.792C95.416 167.792 95.504 167.68 95.504 167.488C95.504 167.336 95.416 167.176 95.248 167.024C95 166.784 94.568 166.472 93.92 166.296C93.872 165.72 93.808 164.976 93.808 164.176V164.096ZM98.248 161.888C98.352 161.912 98.496 161.96 98.616 162.024C98.752 162.096 98.8 162.168 98.792 162.336C98.784 162.536 98.736 162.848 98.664 163.152C98.448 163.192 98.192 163.232 97.96 163.232C97.424 163.232 97.224 163.056 96.88 162.776L96.744 162.872C96.992 163.528 97.272 163.744 97.896 163.744C98.088 163.744 98.296 163.728 98.504 163.704C98.144 164.832 97.512 165.768 97.008 166.416C96.896 166.56 96.856 166.688 96.856 166.84C96.856 167.024 96.952 167.216 97.144 167.216C97.312 167.216 97.424 167.064 97.568 166.856C98.208 165.896 98.752 164.456 99.032 163.616C99.56 163.504 100.048 163.336 100.304 163.192C100.408 163.128 100.568 163.024 100.568 162.872C100.568 162.704 100.416 162.592 100.24 162.592C100.104 162.592 99.936 162.768 99.216 163C99.496 162.072 99.544 161.896 99.4 161.8C99.256 161.704 99.008 161.648 98.776 161.648C98.6 161.648 98.384 161.704 98.248 161.76V161.888ZM100.848 167.024C100.848 167.496 100.632 167.84 99.912 167.84C99.336 167.84 99.088 167.632 99.088 167.352C99.088 167.08 99.44 166.776 100.152 166.776C100.4 166.776 100.632 166.8 100.848 166.84C100.848 166.904 100.848 166.968 100.848 167.024ZM101.136 163.32C101.496 163.336 101.816 163.408 102.024 163.576C102.144 163.664 102.176 163.76 102.048 163.84C101.776 163.968 101.4 164.104 101.136 164.392C100.88 164.656 100.768 164.968 100.768 165.432C100.768 165.72 100.8 166.048 100.816 166.376C100.712 166.368 100.6 166.36 100.488 166.36C99.4 166.36 98.76 166.848 98.76 167.464C98.76 167.968 99.224 168.384 100.072 168.384C100.92 168.384 101.424 168 101.424 167.328C101.424 167.232 101.416 167.128 101.408 167.016C101.816 167.184 102.152 167.424 102.424 167.688C102.632 167.872 102.744 168.04 102.912 168.04C103.056 168.04 103.168 167.928 103.168 167.728C103.168 167.48 102.944 167.224 102.528 166.968C102.232 166.776 101.84 166.576 101.344 166.464C101.288 165.992 101.2 165.52 101.184 165.288C101.168 164.984 101.184 164.728 101.344 164.552C101.504 164.376 101.784 164.28 102.048 164.248C102.416 164.232 102.576 164.4 102.8 164.4C102.984 164.4 103.064 164.264 103.064 164.064C103.064 163.704 102.784 163.376 102.288 163.2C101.976 163.088 101.552 163.056 101.136 163.144V163.32ZM105.224 165.288C105.272 166.752 106.072 167.456 106.704 167.728C107.08 167.88 107.344 167.736 107.344 167.48C107.344 167.28 107.216 167.256 107.272 166.864C107.304 166.608 107.544 165.936 107.728 165.384L107.528 165.296C107.288 165.8 107.008 166.368 106.752 166.744C106.68 166.848 106.584 166.864 106.464 166.808C106.144 166.648 105.712 166.152 105.712 165.232C105.712 164.36 106.032 163.872 106.032 163.504C106.032 163.16 105.592 162.776 105.272 162.632C105.096 162.56 104.896 162.536 104.696 162.512L104.632 162.624C105.16 163.016 105.256 163.248 105.256 163.688C105.256 164.104 105.2 164.696 105.224 165.288ZM110.24 164.536C110.544 165.136 110.584 165.752 110.648 166.096C110.688 166.288 110.808 166.384 110.952 166.384C111.208 166.384 111.336 166.208 111.336 165.84C111.336 165.28 111.104 164.52 110.64 164.056C110.24 163.664 109.832 163.384 109.048 163.272L108.992 163.448C109.552 163.672 109.984 164.032 110.24 164.536Z" fill="black"/>
<rect width="100" height="80" transform="translate(38 21)" fill="#E4DD95"/>
<path d="M66.008 51.952V51.112H67.648V51.952H66.008ZM67.648 50.072V50.88H66.008V50.072H67.648ZM69.968 50.072V50.88H68.304V50.072H69.968ZM68.304 51.952V51.112H69.968V51.952H68.304ZM70.448 54.144H68.304V53.232H70.96C71.072 53.232 71.152 53.192 71.176 53.104C70.888 52.848 70.432 52.52 70.432 52.52L70.024 53H68.304V52.176H69.968V52.464H70.064C70.28 52.464 70.6 52.328 70.616 52.28V50.192C70.776 50.16 70.888 50.088 70.944 50.024L70.216 49.472L69.888 49.84H68.304V49.096H71.368C71.48 49.096 71.568 49.056 71.576 48.968C71.288 48.712 70.8 48.352 70.8 48.352L70.384 48.856H68.304V48.096C69.048 48.032 69.744 47.944 70.32 47.856C70.528 47.944 70.68 47.944 70.76 47.88L70.136 47.256C68.968 47.6 66.744 47.976 64.968 48.112L64.992 48.264C65.856 48.264 66.768 48.224 67.648 48.152V48.856H64.44L64.512 49.096H67.648V49.84H66.048L65.36 49.544V52.56H65.456C65.728 52.56 66.008 52.408 66.008 52.344V52.176H67.648V53H64.936L65 53.232H67.648V54.144H64.312L64.384 54.368H71.488C71.592 54.368 71.68 54.336 71.696 54.248C71.4 53.976 70.88 53.584 70.88 53.584L70.448 54.144ZM77.08 51.816C76.904 52.312 76.64 52.72 76.288 53.064C75.776 52.968 75.192 52.888 74.512 52.824C74.752 52.504 75.016 52.144 75.248 51.816H77.08ZM73.776 49.048H74.824V50.328H73.776V49.048ZM75.448 48H76.504V48.816H75.448V48ZM78.208 49.048V50.328H77.136V49.048H78.208ZM75.448 50.328V49.048H76.504V50.328H75.448ZM78.504 51.576H75.408C75.592 51.32 75.736 51.096 75.84 50.928C76.056 50.936 76.152 50.864 76.184 50.76L75.312 50.552H78.208V50.936H78.312C78.52 50.936 78.832 50.808 78.84 50.76V49.168C79 49.136 79.128 49.064 79.184 49L78.464 48.464L78.128 48.816H77.136V48H79.424C79.536 48 79.608 47.96 79.632 47.872C79.336 47.624 78.872 47.28 78.872 47.28L78.456 47.768H72.384L72.44 48H74.824V48.816H73.84L73.152 48.528V51.024H73.24C73.496 51.024 73.776 50.88 73.776 50.824V50.552H75.272C75.144 50.8 74.912 51.176 74.648 51.576H72.312L72.384 51.816H74.488C74.104 52.368 73.672 52.944 73.36 53.288C73.592 53.432 73.864 53.48 74.032 53.44C74.136 53.312 74.256 53.16 74.376 53C74.928 53.12 75.424 53.248 75.88 53.392C75.072 53.952 73.912 54.28 72.328 54.504L72.36 54.648C74.32 54.496 75.616 54.192 76.504 53.592C77.368 53.896 78.04 54.216 78.52 54.544C79.208 54.96 79.944 53.896 76.976 53.2C77.352 52.832 77.632 52.376 77.848 51.816H79.488C79.592 51.816 79.672 51.776 79.696 51.688C79.408 51.416 78.92 51.064 78.92 51.064L78.504 51.576ZM66.144 69.968V70.496H65.376V69.968H66.144ZM67.272 70.728V71.408H65.376V70.728H67.272ZM66.144 72.248H65.376V71.632H66.144V72.248ZM65.376 72.472H67.28C67.12 72.728 66.848 73.064 66.592 73.344C66.352 73.232 66.008 73.16 65.56 73.152L65.504 73.232C65.912 73.432 66.464 73.824 66.696 74.152C67.112 74.304 67.304 73.832 66.848 73.488C67.2 73.32 67.576 73.128 67.792 72.968C67.92 73.008 68.008 72.992 68.048 72.928L67.312 72.472H68.128C68.24 72.472 68.32 72.432 68.344 72.352C68.072 72.12 67.656 71.808 67.656 71.808L67.288 72.248H66.68V71.632H67.272V71.768H67.368C67.552 71.768 67.832 71.656 67.84 71.608V70.792C67.968 70.768 68.08 70.712 68.12 70.664L67.496 70.192L67.2 70.496H66.68V69.968H67.92C68.032 69.968 68.112 69.928 68.128 69.84C67.872 69.608 67.472 69.288 67.472 69.288L67.104 69.736H65.472L64.776 69.448V73.016H64.88C65.184 73.016 65.376 72.872 65.376 72.816V72.472ZM64.616 76.536C65.488 76.32 66.424 75.904 66.944 75.544C67.12 75.584 67.184 75.56 67.248 75.488L66.52 75C66.104 75.464 65.272 76.072 64.544 76.424L64.616 76.536ZM68.792 75.184C69.44 75.464 70.368 76.032 70.76 76.504C71.488 76.688 71.448 75.288 68.848 75.08L68.792 75.184ZM69.368 73.776C69.624 73.912 69.92 74.12 70.184 74.344C69.184 74.36 68.216 74.376 67.36 74.384C68.112 74.048 68.896 73.64 69.368 73.328C69.544 73.376 69.616 73.344 69.68 73.264L68.944 72.816C68.48 73.256 67.632 73.904 66.888 74.384C65.88 74.392 65.048 74.392 64.52 74.384L64.912 75.104C64.992 75.088 65.08 75.032 65.136 74.936C66.088 74.872 66.928 74.816 67.68 74.76V76.64H67.784C68.112 76.64 68.312 76.52 68.312 76.488V74.712C69.12 74.648 69.808 74.584 70.384 74.528C70.576 74.712 70.736 74.896 70.832 75.072C71.504 75.336 71.624 73.992 69.44 73.696L69.368 73.776ZM70.536 70.024C70.344 70.52 70.072 70.992 69.704 71.416C69.328 71.048 69.032 70.584 68.848 70.024H70.536ZM70.912 69.432L70.528 69.8H68.216L68.288 70.024H68.672C68.84 70.72 69.08 71.28 69.4 71.736C69.016 72.12 68.552 72.448 68.024 72.704L68.096 72.824C68.696 72.624 69.208 72.36 69.648 72.048C70.056 72.504 70.576 72.848 71.224 73.12C71.312 72.816 71.504 72.632 71.76 72.576L71.776 72.496C71.12 72.328 70.536 72.072 70.064 71.72C70.584 71.256 70.976 70.704 71.24 70.104C71.432 70.088 71.512 70.064 71.568 70L70.912 69.432ZM76.432 70.208C76.288 70.496 76.072 70.872 75.872 71.16H74.016C74.352 70.864 74.656 70.536 74.92 70.208H76.432ZM77.896 71.4V72.272H73.64L73.712 72.496H77.896V73.4H73.416L73.488 73.64H77.896V74.008H77.992C78.216 74.008 78.528 73.864 78.536 73.808V71.512C78.704 71.48 78.816 71.416 78.872 71.352L78.152 70.8L77.816 71.16H76.136C76.536 70.904 76.944 70.544 77.224 70.304C77.392 70.288 77.48 70.272 77.544 70.216L76.848 69.584L76.44 69.984H75.088C75.184 69.856 75.272 69.72 75.352 69.592C75.56 69.608 75.616 69.576 75.648 69.488L74.656 69.224C74.24 70.256 73.368 71.424 72.464 72.072L72.544 72.168C72.96 71.968 73.36 71.704 73.736 71.4H77.896ZM75.304 73.968C75.736 74.232 76.248 74.736 76.4 75.176C77.072 75.544 77.392 74.16 75.376 73.896L75.304 73.968ZM73.512 74.256C73.44 74.856 72.984 75.36 72.608 75.552C72.432 75.648 72.304 75.832 72.376 76.024C72.48 76.24 72.792 76.24 73.032 76.08C73.4 75.856 73.832 75.224 73.648 74.272L73.512 74.256ZM77.824 74.92H77.72C77.616 75.344 77.52 75.672 77.448 75.8C77.4 75.872 77.368 75.896 77.248 75.904C77.128 75.912 76.784 75.912 76.36 75.912H75.376C75.032 75.912 74.992 75.88 74.992 75.768V74.36C75.144 74.336 75.224 74.264 75.232 74.168L74.368 74.08V75.888C74.368 76.368 74.52 76.48 75.28 76.48H76.32C77.808 76.48 78.104 76.376 78.104 76.088C78.104 75.96 78.04 75.896 77.84 75.824L77.824 74.92ZM77.736 74.272C78.272 74.688 78.888 75.408 79.048 76.008C79.784 76.496 80.232 74.864 77.808 74.208L77.736 74.272ZM80.448 71.008C80.44 71.128 80.424 71.264 80.448 71.408C80.504 71.72 80.952 72.12 81.264 72.12C81.448 72.12 81.616 71.976 81.776 71.896C82.256 71.656 83.384 71.272 84.288 71.056C84.376 71.04 84.384 71.088 84.328 71.128C83.424 71.816 83.064 72.856 83.064 73.856C83.064 74.792 83.352 75.296 83.864 75.656C84.4 76.04 85.136 76.088 85.64 76.088C86.008 76.088 86.272 76.008 86.272 75.768C86.272 75.544 85.984 75.368 85.768 75.368C85.472 75.368 84.784 75.416 84.28 75.12C83.968 74.936 83.6 74.592 83.6 73.704C83.6 72.176 84.36 71.456 84.696 71.248C85.112 70.984 85.648 70.936 86.024 70.936C86.304 70.936 86.544 70.96 86.72 70.96C86.92 70.96 87.032 70.848 87.032 70.712C87.032 70.568 86.936 70.464 86.752 70.384C86.6 70.312 86.376 70.28 86.152 70.28C85.888 70.28 85.2 70.416 84.304 70.632C82.96 70.944 81.528 71.36 81.088 71.36C80.904 71.36 80.696 71.168 80.576 70.96L80.448 71.008ZM86.144 71.6C86.52 71.864 86.704 72.072 86.88 72.264C87.04 72.464 87.128 72.632 87.264 72.632C87.4 72.632 87.472 72.552 87.472 72.408C87.472 72.232 87.392 72.08 87.184 71.912C86.984 71.744 86.648 71.6 86.232 71.464L86.144 71.6ZM85.424 72.128C85.776 72.392 85.992 72.656 86.152 72.864C86.312 73.064 86.4 73.232 86.52 73.232C86.656 73.232 86.744 73.136 86.744 72.992C86.744 72.84 86.672 72.696 86.488 72.528C86.272 72.328 85.936 72.152 85.528 71.992L85.424 72.128ZM90.432 73.056C90.24 73.464 89.808 74.472 89.632 74.744C89.56 74.856 89.488 74.848 89.44 74.744C89.36 74.592 89.312 74.376 89.312 74.008C89.312 73.184 89.64 72.36 89.856 71.888C90.048 71.44 90.168 71.288 90.168 71.104C90.168 70.728 89.776 70.312 89.592 70.176C89.432 70.048 89.32 70 89.12 69.928L89 70.024C89.264 70.328 89.456 70.608 89.456 70.92C89.448 71.208 89.36 71.504 89.256 71.888C89.12 72.368 88.88 73.216 88.88 74.104C88.88 74.944 89.112 75.672 89.352 76.008C89.48 76.2 89.616 76.336 89.776 76.336C89.96 76.336 90.056 76.216 90.056 76.032C90.056 75.816 89.936 75.56 89.936 75.304C89.936 75.176 89.976 75.008 90.048 74.736C90.152 74.448 90.472 73.568 90.624 73.144L90.432 73.056ZM93.4 74.696C93.4 75.312 93.24 75.624 92.384 75.624C91.936 75.624 91.576 75.48 91.576 75.136C91.576 74.768 92.088 74.568 92.568 74.568C92.872 74.568 93.152 74.6 93.4 74.664V74.696ZM93.808 72.096C94.264 72.008 94.656 71.896 94.864 71.824C95.152 71.712 95.272 71.648 95.272 71.464C95.272 71.28 94.992 71.176 94.8 71.176C94.728 71.176 94.592 71.272 94.184 71.416C94.088 71.456 93.968 71.496 93.824 71.544C93.84 71.296 93.864 71.072 93.896 70.912C93.952 70.584 94.024 70.528 94.024 70.352C94.024 70.16 93.584 69.92 93.184 69.92C92.992 69.92 92.736 70.032 92.56 70.12L92.576 70.272C92.784 70.288 92.984 70.32 93.144 70.368C93.264 70.408 93.304 70.448 93.304 70.672C93.304 70.864 93.304 71.28 93.304 71.664C93.024 71.72 92.72 71.752 92.384 71.752C91.968 71.752 91.624 71.6 91.28 71.352L91.168 71.456C91.592 72.152 91.944 72.248 92.44 72.248C92.72 72.248 93.016 72.224 93.304 72.184C93.312 72.832 93.36 73.632 93.384 74.192C93.224 74.168 93.048 74.16 92.864 74.16C91.984 74.16 91.248 74.48 91.248 75.184C91.248 75.8 91.84 76.144 92.552 76.144C93.56 76.144 93.968 75.72 93.968 75.064C93.968 75.008 93.968 74.944 93.96 74.88C94.28 75.04 94.56 75.256 94.832 75.52C95.016 75.688 95.12 75.792 95.256 75.792C95.416 75.792 95.504 75.68 95.504 75.488C95.504 75.336 95.416 75.176 95.248 75.024C95 74.784 94.568 74.472 93.92 74.296C93.872 73.72 93.808 72.976 93.808 72.176V72.096ZM98.248 69.888C98.352 69.912 98.496 69.96 98.616 70.024C98.752 70.096 98.8 70.168 98.792 70.336C98.784 70.536 98.736 70.848 98.664 71.152C98.448 71.192 98.192 71.232 97.96 71.232C97.424 71.232 97.224 71.056 96.88 70.776L96.744 70.872C96.992 71.528 97.272 71.744 97.896 71.744C98.088 71.744 98.296 71.728 98.504 71.704C98.144 72.832 97.512 73.768 97.008 74.416C96.896 74.56 96.856 74.688 96.856 74.84C96.856 75.024 96.952 75.216 97.144 75.216C97.312 75.216 97.424 75.064 97.568 74.856C98.208 73.896 98.752 72.456 99.032 71.616C99.56 71.504 100.048 71.336 100.304 71.192C100.408 71.128 100.568 71.024 100.568 70.872C100.568 70.704 100.416 70.592 100.24 70.592C100.104 70.592 99.936 70.768 99.216 71C99.496 70.072 99.544 69.896 99.4 69.8C99.256 69.704 99.008 69.648 98.776 69.648C98.6 69.648 98.384 69.704 98.248 69.76V69.888ZM100.848 75.024C100.848 75.496 100.632 75.84 99.912 75.84C99.336 75.84 99.088 75.632 99.088 75.352C99.088 75.08 99.44 74.776 100.152 74.776C100.4 74.776 100.632 74.8 100.848 74.84C100.848 74.904 100.848 74.968 100.848 75.024ZM101.136 71.32C101.496 71.336 101.816 71.408 102.024 71.576C102.144 71.664 102.176 71.76 102.048 71.84C101.776 71.968 101.4 72.104 101.136 72.392C100.88 72.656 100.768 72.968 100.768 73.432C100.768 73.72 100.8 74.048 100.816 74.376C100.712 74.368 100.6 74.36 100.488 74.36C99.4 74.36 98.76 74.848 98.76 75.464C98.76 75.968 99.224 76.384 100.072 76.384C100.92 76.384 101.424 76 101.424 75.328C101.424 75.232 101.416 75.128 101.408 75.016C101.816 75.184 102.152 75.424 102.424 75.688C102.632 75.872 102.744 76.04 102.912 76.04C103.056 76.04 103.168 75.928 103.168 75.728C103.168 75.48 102.944 75.224 102.528 74.968C102.232 74.776 101.84 74.576 101.344 74.464C101.288 73.992 101.2 73.52 101.184 73.288C101.168 72.984 101.184 72.728 101.344 72.552C101.504 72.376 101.784 72.28 102.048 72.248C102.416 72.232 102.576 72.4 102.8 72.4C102.984 72.4 103.064 72.264 103.064 72.064C103.064 71.704 102.784 71.376 102.288 71.2C101.976 71.088 101.552 71.056 101.136 71.144V71.32ZM105.224 73.288C105.272 74.752 106.072 75.456 106.704 75.728C107.08 75.88 107.344 75.736 107.344 75.48C107.344 75.28 107.216 75.256 107.272 74.864C107.304 74.608 107.544 73.936 107.728 73.384L107.528 73.296C107.288 73.8 107.008 74.368 106.752 74.744C106.68 74.848 106.584 74.864 106.464 74.808C106.144 74.648 105.712 74.152 105.712 73.232C105.712 72.36 106.032 71.872 106.032 71.504C106.032 71.16 105.592 70.776 105.272 70.632C105.096 70.56 104.896 70.536 104.696 70.512L104.632 70.624C105.16 71.016 105.256 71.248 105.256 71.688C105.256 72.104 105.2 72.696 105.224 73.288ZM110.24 72.536C110.544 73.136 110.584 73.752 110.648 74.096C110.688 74.288 110.808 74.384 110.952 74.384C111.208 74.384 111.336 74.208 111.336 73.84C111.336 73.28 111.104 72.52 110.64 72.056C110.24 71.664 109.832 71.384 109.048 71.272L108.992 71.448C109.552 71.672 109.984 72.032 110.24 72.536Z" fill="black"/>
<rect width="100" height="80" transform="translate(150 21)" fill="#DB9C89"/>
<path d="M178.008 51.952V51.112H179.648V51.952H178.008ZM179.648 50.072V50.88H178.008V50.072H179.648ZM181.968 50.072V50.88H180.304V50.072H181.968ZM180.304 51.952V51.112H181.968V51.952H180.304ZM182.448 54.144H180.304V53.232H182.96C183.072 53.232 183.152 53.192 183.176 53.104C182.888 52.848 182.432 52.52 182.432 52.52L182.024 53H180.304V52.176H181.968V52.464H182.064C182.28 52.464 182.6 52.328 182.616 52.28V50.192C182.776 50.16 182.888 50.088 182.944 50.024L182.216 49.472L181.888 49.84H180.304V49.096H183.368C183.48 49.096 183.568 49.056 183.576 48.968C183.288 48.712 182.8 48.352 182.8 48.352L182.384 48.856H180.304V48.096C181.048 48.032 181.744 47.944 182.32 47.856C182.528 47.944 182.68 47.944 182.76 47.88L182.136 47.256C180.968 47.6 178.744 47.976 176.968 48.112L176.992 48.264C177.856 48.264 178.768 48.224 179.648 48.152V48.856H176.44L176.512 49.096H179.648V49.84H178.048L177.36 49.544V52.56H177.456C177.728 52.56 178.008 52.408 178.008 52.344V52.176H179.648V53H176.936L177 53.232H179.648V54.144H176.312L176.384 54.368H183.488C183.592 54.368 183.68 54.336 183.696 54.248C183.4 53.976 182.88 53.584 182.88 53.584L182.448 54.144ZM189.08 51.816C188.904 52.312 188.64 52.72 188.288 53.064C187.776 52.968 187.192 52.888 186.512 52.824C186.752 52.504 187.016 52.144 187.248 51.816H189.08ZM185.776 49.048H186.824V50.328H185.776V49.048ZM187.448 48H188.504V48.816H187.448V48ZM190.208 49.048V50.328H189.136V49.048H190.208ZM187.448 50.328V49.048H188.504V50.328H187.448ZM190.504 51.576H187.408C187.592 51.32 187.736 51.096 187.84 50.928C188.056 50.936 188.152 50.864 188.184 50.76L187.312 50.552H190.208V50.936H190.312C190.52 50.936 190.832 50.808 190.84 50.76V49.168C191 49.136 191.128 49.064 191.184 49L190.464 48.464L190.128 48.816H189.136V48H191.424C191.536 48 191.608 47.96 191.632 47.872C191.336 47.624 190.872 47.28 190.872 47.28L190.456 47.768H184.384L184.44 48H186.824V48.816H185.84L185.152 48.528V51.024H185.24C185.496 51.024 185.776 50.88 185.776 50.824V50.552H187.272C187.144 50.8 186.912 51.176 186.648 51.576H184.312L184.384 51.816H186.488C186.104 52.368 185.672 52.944 185.36 53.288C185.592 53.432 185.864 53.48 186.032 53.44C186.136 53.312 186.256 53.16 186.376 53C186.928 53.12 187.424 53.248 187.88 53.392C187.072 53.952 185.912 54.28 184.328 54.504L184.36 54.648C186.32 54.496 187.616 54.192 188.504 53.592C189.368 53.896 190.04 54.216 190.52 54.544C191.208 54.96 191.944 53.896 188.976 53.2C189.352 52.832 189.632 52.376 189.848 51.816H191.488C191.592 51.816 191.672 51.776 191.696 51.688C191.408 51.416 190.92 51.064 190.92 51.064L190.504 51.576ZM178.144 69.968V70.496H177.376V69.968H178.144ZM179.272 70.728V71.408H177.376V70.728H179.272ZM178.144 72.248H177.376V71.632H178.144V72.248ZM177.376 72.472H179.28C179.12 72.728 178.848 73.064 178.592 73.344C178.352 73.232 178.008 73.16 177.56 73.152L177.504 73.232C177.912 73.432 178.464 73.824 178.696 74.152C179.112 74.304 179.304 73.832 178.848 73.488C179.2 73.32 179.576 73.128 179.792 72.968C179.92 73.008 180.008 72.992 180.048 72.928L179.312 72.472H180.128C180.24 72.472 180.32 72.432 180.344 72.352C180.072 72.12 179.656 71.808 179.656 71.808L179.288 72.248H178.68V71.632H179.272V71.768H179.368C179.552 71.768 179.832 71.656 179.84 71.608V70.792C179.968 70.768 180.08 70.712 180.12 70.664L179.496 70.192L179.2 70.496H178.68V69.968H179.92C180.032 69.968 180.112 69.928 180.128 69.84C179.872 69.608 179.472 69.288 179.472 69.288L179.104 69.736H177.472L176.776 69.448V73.016H176.88C177.184 73.016 177.376 72.872 177.376 72.816V72.472ZM176.616 76.536C177.488 76.32 178.424 75.904 178.944 75.544C179.12 75.584 179.184 75.56 179.248 75.488L178.52 75C178.104 75.464 177.272 76.072 176.544 76.424L176.616 76.536ZM180.792 75.184C181.44 75.464 182.368 76.032 182.76 76.504C183.488 76.688 183.448 75.288 180.848 75.08L180.792 75.184ZM181.368 73.776C181.624 73.912 181.92 74.12 182.184 74.344C181.184 74.36 180.216 74.376 179.36 74.384C180.112 74.048 180.896 73.64 181.368 73.328C181.544 73.376 181.616 73.344 181.68 73.264L180.944 72.816C180.48 73.256 179.632 73.904 178.888 74.384C177.88 74.392 177.048 74.392 176.52 74.384L176.912 75.104C176.992 75.088 177.08 75.032 177.136 74.936C178.088 74.872 178.928 74.816 179.68 74.76V76.64H179.784C180.112 76.64 180.312 76.52 180.312 76.488V74.712C181.12 74.648 181.808 74.584 182.384 74.528C182.576 74.712 182.736 74.896 182.832 75.072C183.504 75.336 183.624 73.992 181.44 73.696L181.368 73.776ZM182.536 70.024C182.344 70.52 182.072 70.992 181.704 71.416C181.328 71.048 181.032 70.584 180.848 70.024H182.536ZM182.912 69.432L182.528 69.8H180.216L180.288 70.024H180.672C180.84 70.72 181.08 71.28 181.4 71.736C181.016 72.12 180.552 72.448 180.024 72.704L180.096 72.824C180.696 72.624 181.208 72.36 181.648 72.048C182.056 72.504 182.576 72.848 183.224 73.12C183.312 72.816 183.504 72.632 183.76 72.576L183.776 72.496C183.12 72.328 182.536 72.072 182.064 71.72C182.584 71.256 182.976 70.704 183.24 70.104C183.432 70.088 183.512 70.064 183.568 70L182.912 69.432ZM188.432 70.208C188.288 70.496 188.072 70.872 187.872 71.16H186.016C186.352 70.864 186.656 70.536 186.92 70.208H188.432ZM189.896 71.4V72.272H185.64L185.712 72.496H189.896V73.4H185.416L185.488 73.64H189.896V74.008H189.992C190.216 74.008 190.528 73.864 190.536 73.808V71.512C190.704 71.48 190.816 71.416 190.872 71.352L190.152 70.8L189.816 71.16H188.136C188.536 70.904 188.944 70.544 189.224 70.304C189.392 70.288 189.48 70.272 189.544 70.216L188.848 69.584L188.44 69.984H187.088C187.184 69.856 187.272 69.72 187.352 69.592C187.56 69.608 187.616 69.576 187.648 69.488L186.656 69.224C186.24 70.256 185.368 71.424 184.464 72.072L184.544 72.168C184.96 71.968 185.36 71.704 185.736 71.4H189.896ZM187.304 73.968C187.736 74.232 188.248 74.736 188.4 75.176C189.072 75.544 189.392 74.16 187.376 73.896L187.304 73.968ZM185.512 74.256C185.44 74.856 184.984 75.36 184.608 75.552C184.432 75.648 184.304 75.832 184.376 76.024C184.48 76.24 184.792 76.24 185.032 76.08C185.4 75.856 185.832 75.224 185.648 74.272L185.512 74.256ZM189.824 74.92H189.72C189.616 75.344 189.52 75.672 189.448 75.8C189.4 75.872 189.368 75.896 189.248 75.904C189.128 75.912 188.784 75.912 188.36 75.912H187.376C187.032 75.912 186.992 75.88 186.992 75.768V74.36C187.144 74.336 187.224 74.264 187.232 74.168L186.368 74.08V75.888C186.368 76.368 186.52 76.48 187.28 76.48H188.32C189.808 76.48 190.104 76.376 190.104 76.088C190.104 75.96 190.04 75.896 189.84 75.824L189.824 74.92ZM189.736 74.272C190.272 74.688 190.888 75.408 191.048 76.008C191.784 76.496 192.232 74.864 189.808 74.208L189.736 74.272Z" fill="black"/>
<rect width="100" height="80" transform="translate(150 113)" fill="#B6D9B9"/>
<path d="M178.008 143.952V143.112H179.648V143.952H178.008ZM179.648 142.072V142.88H178.008V142.072H179.648ZM181.968 142.072V142.88H180.304V142.072H181.968ZM180.304 143.952V143.112H181.968V143.952H180.304ZM182.448 146.144H180.304V145.232H182.96C183.072 145.232 183.152 145.192 183.176 145.104C182.888 144.848 182.432 144.52 182.432 144.52L182.024 145H180.304V144.176H181.968V144.464H182.064C182.28 144.464 182.6 144.328 182.616 144.28V142.192C182.776 142.16 182.888 142.088 182.944 142.024L182.216 141.472L181.888 141.84H180.304V141.096H183.368C183.48 141.096 183.568 141.056 183.576 140.968C183.288 140.712 182.8 140.352 182.8 140.352L182.384 140.856H180.304V140.096C181.048 140.032 181.744 139.944 182.32 139.856C182.528 139.944 182.68 139.944 182.76 139.88L182.136 139.256C180.968 139.6 178.744 139.976 176.968 140.112L176.992 140.264C177.856 140.264 178.768 140.224 179.648 140.152V140.856H176.44L176.512 141.096H179.648V141.84H178.048L177.36 141.544V144.56H177.456C177.728 144.56 178.008 144.408 178.008 144.344V144.176H179.648V145H176.936L177 145.232H179.648V146.144H176.312L176.384 146.368H183.488C183.592 146.368 183.68 146.336 183.696 146.248C183.4 145.976 182.88 145.584 182.88 145.584L182.448 146.144ZM189.08 143.816C188.904 144.312 188.64 144.72 188.288 145.064C187.776 144.968 187.192 144.888 186.512 144.824C186.752 144.504 187.016 144.144 187.248 143.816H189.08ZM185.776 141.048H186.824V142.328H185.776V141.048ZM187.448 140H188.504V140.816H187.448V140ZM190.208 141.048V142.328H189.136V141.048H190.208ZM187.448 142.328V141.048H188.504V142.328H187.448ZM190.504 143.576H187.408C187.592 143.32 187.736 143.096 187.84 142.928C188.056 142.936 188.152 142.864 188.184 142.76L187.312 142.552H190.208V142.936H190.312C190.52 142.936 190.832 142.808 190.84 142.76V141.168C191 141.136 191.128 141.064 191.184 141L190.464 140.464L190.128 140.816H189.136V140H191.424C191.536 140 191.608 139.96 191.632 139.872C191.336 139.624 190.872 139.28 190.872 139.28L190.456 139.768H184.384L184.44 140H186.824V140.816H185.84L185.152 140.528V143.024H185.24C185.496 143.024 185.776 142.88 185.776 142.824V142.552H187.272C187.144 142.8 186.912 143.176 186.648 143.576H184.312L184.384 143.816H186.488C186.104 144.368 185.672 144.944 185.36 145.288C185.592 145.432 185.864 145.48 186.032 145.44C186.136 145.312 186.256 145.16 186.376 145C186.928 145.12 187.424 145.248 187.88 145.392C187.072 145.952 185.912 146.28 184.328 146.504L184.36 146.648C186.32 146.496 187.616 146.192 188.504 145.592C189.368 145.896 190.04 146.216 190.52 146.544C191.208 146.96 191.944 145.896 188.976 145.2C189.352 144.832 189.632 144.376 189.848 143.816H191.488C191.592 143.816 191.672 143.776 191.696 143.688C191.408 143.416 190.92 143.064 190.92 143.064L190.504 143.576ZM192.448 141.008C192.44 141.128 192.424 141.264 192.448 141.408C192.504 141.72 192.952 142.12 193.264 142.12C193.448 142.12 193.616 141.976 193.776 141.896C194.256 141.656 195.384 141.272 196.288 141.056C196.376 141.04 196.384 141.088 196.328 141.128C195.424 141.816 195.064 142.856 195.064 143.856C195.064 144.792 195.352 145.296 195.864 145.656C196.4 146.04 197.136 146.088 197.64 146.088C198.008 146.088 198.272 146.008 198.272 145.768C198.272 145.544 197.984 145.368 197.768 145.368C197.472 145.368 196.784 145.416 196.28 145.12C195.968 144.936 195.6 144.592 195.6 143.704C195.6 142.176 196.36 141.456 196.696 141.248C197.112 140.984 197.648 140.936 198.024 140.936C198.304 140.936 198.544 140.96 198.72 140.96C198.92 140.96 199.032 140.848 199.032 140.712C199.032 140.568 198.936 140.464 198.752 140.384C198.6 140.312 198.376 140.28 198.152 140.28C197.888 140.28 197.2 140.416 196.304 140.632C194.96 140.944 193.528 141.36 193.088 141.36C192.904 141.36 192.696 141.168 192.576 140.96L192.448 141.008ZM198.144 141.6C198.52 141.864 198.704 142.072 198.88 142.264C199.04 142.464 199.128 142.632 199.264 142.632C199.4 142.632 199.472 142.552 199.472 142.408C199.472 142.232 199.392 142.08 199.184 141.912C198.984 141.744 198.648 141.6 198.232 141.464L198.144 141.6ZM197.424 142.128C197.776 142.392 197.992 142.656 198.152 142.864C198.312 143.064 198.4 143.232 198.52 143.232C198.656 143.232 198.744 143.136 198.744 142.992C198.744 142.84 198.672 142.696 198.488 142.528C198.272 142.328 197.936 142.152 197.528 141.992L197.424 142.128ZM202.432 143.056C202.24 143.464 201.808 144.472 201.632 144.744C201.56 144.856 201.488 144.848 201.44 144.744C201.36 144.592 201.312 144.376 201.312 144.008C201.312 143.184 201.64 142.36 201.856 141.888C202.048 141.44 202.168 141.288 202.168 141.104C202.168 140.728 201.776 140.312 201.592 140.176C201.432 140.048 201.32 140 201.12 139.928L201 140.024C201.264 140.328 201.456 140.608 201.456 140.92C201.448 141.208 201.36 141.504 201.256 141.888C201.12 142.368 200.88 143.216 200.88 144.104C200.88 144.944 201.112 145.672 201.352 146.008C201.48 146.2 201.616 146.336 201.776 146.336C201.96 146.336 202.056 146.216 202.056 146.032C202.056 145.816 201.936 145.56 201.936 145.304C201.936 145.176 201.976 145.008 202.048 144.736C202.152 144.448 202.472 143.568 202.624 143.144L202.432 143.056ZM205.4 144.696C205.4 145.312 205.24 145.624 204.384 145.624C203.936 145.624 203.576 145.48 203.576 145.136C203.576 144.768 204.088 144.568 204.568 144.568C204.872 144.568 205.152 144.6 205.4 144.664V144.696ZM205.808 142.096C206.264 142.008 206.656 141.896 206.864 141.824C207.152 141.712 207.272 141.648 207.272 141.464C207.272 141.28 206.992 141.176 206.8 141.176C206.728 141.176 206.592 141.272 206.184 141.416C206.088 141.456 205.968 141.496 205.824 141.544C205.84 141.296 205.864 141.072 205.896 140.912C205.952 140.584 206.024 140.528 206.024 140.352C206.024 140.16 205.584 139.92 205.184 139.92C204.992 139.92 204.736 140.032 204.56 140.12L204.576 140.272C204.784 140.288 204.984 140.32 205.144 140.368C205.264 140.408 205.304 140.448 205.304 140.672C205.304 140.864 205.304 141.28 205.304 141.664C205.024 141.72 204.72 141.752 204.384 141.752C203.968 141.752 203.624 141.6 203.28 141.352L203.168 141.456C203.592 142.152 203.944 142.248 204.44 142.248C204.72 142.248 205.016 142.224 205.304 142.184C205.312 142.832 205.36 143.632 205.384 144.192C205.224 144.168 205.048 144.16 204.864 144.16C203.984 144.16 203.248 144.48 203.248 145.184C203.248 145.8 203.84 146.144 204.552 146.144C205.56 146.144 205.968 145.72 205.968 145.064C205.968 145.008 205.968 144.944 205.96 144.88C206.28 145.04 206.56 145.256 206.832 145.52C207.016 145.688 207.12 145.792 207.256 145.792C207.416 145.792 207.504 145.68 207.504 145.488C207.504 145.336 207.416 145.176 207.248 145.024C207 144.784 206.568 144.472 205.92 144.296C205.872 143.72 205.808 142.976 205.808 142.176V142.096ZM210.248 139.888C210.352 139.912 210.496 139.96 210.616 140.024C210.752 140.096 210.8 140.168 210.792 140.336C210.784 140.536 210.736 140.848 210.664 141.152C210.448 141.192 210.192 141.232 209.96 141.232C209.424 141.232 209.224 141.056 208.88 140.776L208.744 140.872C208.992 141.528 209.272 141.744 209.896 141.744C210.088 141.744 210.296 141.728 210.504 141.704C210.144 142.832 209.512 143.768 209.008 144.416C208.896 144.56 208.856 144.688 208.856 144.84C208.856 145.024 208.952 145.216 209.144 145.216C209.312 145.216 209.424 145.064 209.568 144.856C210.208 143.896 210.752 142.456 211.032 141.616C211.56 141.504 212.048 141.336 212.304 141.192C212.408 141.128 212.568 141.024 212.568 140.872C212.568 140.704 212.416 140.592 212.24 140.592C212.104 140.592 211.936 140.768 211.216 141C211.496 140.072 211.544 139.896 211.4 139.8C211.256 139.704 211.008 139.648 210.776 139.648C210.6 139.648 210.384 139.704 210.248 139.76V139.888ZM212.848 145.024C212.848 145.496 212.632 145.84 211.912 145.84C211.336 145.84 211.088 145.632 211.088 145.352C211.088 145.08 211.44 144.776 212.152 144.776C212.4 144.776 212.632 144.8 212.848 144.84C212.848 144.904 212.848 144.968 212.848 145.024ZM213.136 141.32C213.496 141.336 213.816 141.408 214.024 141.576C214.144 141.664 214.176 141.76 214.048 141.84C213.776 141.968 213.4 142.104 213.136 142.392C212.88 142.656 212.768 142.968 212.768 143.432C212.768 143.72 212.8 144.048 212.816 144.376C212.712 144.368 212.6 144.36 212.488 144.36C211.4 144.36 210.76 144.848 210.76 145.464C210.76 145.968 211.224 146.384 212.072 146.384C212.92 146.384 213.424 146 213.424 145.328C213.424 145.232 213.416 145.128 213.408 145.016C213.816 145.184 214.152 145.424 214.424 145.688C214.632 145.872 214.744 146.04 214.912 146.04C215.056 146.04 215.168 145.928 215.168 145.728C215.168 145.48 214.944 145.224 214.528 144.968C214.232 144.776 213.84 144.576 213.344 144.464C213.288 143.992 213.2 143.52 213.184 143.288C213.168 142.984 213.184 142.728 213.344 142.552C213.504 142.376 213.784 142.28 214.048 142.248C214.416 142.232 214.576 142.4 214.8 142.4C214.984 142.4 215.064 142.264 215.064 142.064C215.064 141.704 214.784 141.376 214.288 141.2C213.976 141.088 213.552 141.056 213.136 141.144V141.32ZM217.224 143.288C217.272 144.752 218.072 145.456 218.704 145.728C219.08 145.88 219.344 145.736 219.344 145.48C219.344 145.28 219.216 145.256 219.272 144.864C219.304 144.608 219.544 143.936 219.728 143.384L219.528 143.296C219.288 143.8 219.008 144.368 218.752 144.744C218.68 144.848 218.584 144.864 218.464 144.808C218.144 144.648 217.712 144.152 217.712 143.232C217.712 142.36 218.032 141.872 218.032 141.504C218.032 141.16 217.592 140.776 217.272 140.632C217.096 140.56 216.896 140.536 216.696 140.512L216.632 140.624C217.16 141.016 217.256 141.248 217.256 141.688C217.256 142.104 217.2 142.696 217.224 143.288ZM222.24 142.536C222.544 143.136 222.584 143.752 222.648 144.096C222.688 144.288 222.808 144.384 222.952 144.384C223.208 144.384 223.336 144.208 223.336 143.84C223.336 143.28 223.104 142.52 222.64 142.056C222.24 141.664 221.832 141.384 221.048 141.272L220.992 141.448C221.552 141.672 221.984 142.032 222.24 142.536ZM178.144 161.968V162.496H177.376V161.968H178.144ZM179.272 162.728V163.408H177.376V162.728H179.272ZM178.144 164.248H177.376V163.632H178.144V164.248ZM177.376 164.472H179.28C179.12 164.728 178.848 165.064 178.592 165.344C178.352 165.232 178.008 165.16 177.56 165.152L177.504 165.232C177.912 165.432 178.464 165.824 178.696 166.152C179.112 166.304 179.304 165.832 178.848 165.488C179.2 165.32 179.576 165.128 179.792 164.968C179.92 165.008 180.008 164.992 180.048 164.928L179.312 164.472H180.128C180.24 164.472 180.32 164.432 180.344 164.352C180.072 164.12 179.656 163.808 179.656 163.808L179.288 164.248H178.68V163.632H179.272V163.768H179.368C179.552 163.768 179.832 163.656 179.84 163.608V162.792C179.968 162.768 180.08 162.712 180.12 162.664L179.496 162.192L179.2 162.496H178.68V161.968H179.92C180.032 161.968 180.112 161.928 180.128 161.84C179.872 161.608 179.472 161.288 179.472 161.288L179.104 161.736H177.472L176.776 161.448V165.016H176.88C177.184 165.016 177.376 164.872 177.376 164.816V164.472ZM176.616 168.536C177.488 168.32 178.424 167.904 178.944 167.544C179.12 167.584 179.184 167.56 179.248 167.488L178.52 167C178.104 167.464 177.272 168.072 176.544 168.424L176.616 168.536ZM180.792 167.184C181.44 167.464 182.368 168.032 182.76 168.504C183.488 168.688 183.448 167.288 180.848 167.08L180.792 167.184ZM181.368 165.776C181.624 165.912 181.92 166.12 182.184 166.344C181.184 166.36 180.216 166.376 179.36 166.384C180.112 166.048 180.896 165.64 181.368 165.328C181.544 165.376 181.616 165.344 181.68 165.264L180.944 164.816C180.48 165.256 179.632 165.904 178.888 166.384C177.88 166.392 177.048 166.392 176.52 166.384L176.912 167.104C176.992 167.088 177.08 167.032 177.136 166.936C178.088 166.872 178.928 166.816 179.68 166.76V168.64H179.784C180.112 168.64 180.312 168.52 180.312 168.488V166.712C181.12 166.648 181.808 166.584 182.384 166.528C182.576 166.712 182.736 166.896 182.832 167.072C183.504 167.336 183.624 165.992 181.44 165.696L181.368 165.776ZM182.536 162.024C182.344 162.52 182.072 162.992 181.704 163.416C181.328 163.048 181.032 162.584 180.848 162.024H182.536ZM182.912 161.432L182.528 161.8H180.216L180.288 162.024H180.672C180.84 162.72 181.08 163.28 181.4 163.736C181.016 164.12 180.552 164.448 180.024 164.704L180.096 164.824C180.696 164.624 181.208 164.36 181.648 164.048C182.056 164.504 182.576 164.848 183.224 165.12C183.312 164.816 183.504 164.632 183.76 164.576L183.776 164.496C183.12 164.328 182.536 164.072 182.064 163.72C182.584 163.256 182.976 162.704 183.24 162.104C183.432 162.088 183.512 162.064 183.568 162L182.912 161.432ZM188.432 162.208C188.288 162.496 188.072 162.872 187.872 163.16H186.016C186.352 162.864 186.656 162.536 186.92 162.208H188.432ZM189.896 163.4V164.272H185.64L185.712 164.496H189.896V165.4H185.416L185.488 165.64H189.896V166.008H189.992C190.216 166.008 190.528 165.864 190.536 165.808V163.512C190.704 163.48 190.816 163.416 190.872 163.352L190.152 162.8L189.816 163.16H188.136C188.536 162.904 188.944 162.544 189.224 162.304C189.392 162.288 189.48 162.272 189.544 162.216L188.848 161.584L188.44 161.984H187.088C187.184 161.856 187.272 161.72 187.352 161.592C187.56 161.608 187.616 161.576 187.648 161.488L186.656 161.224C186.24 162.256 185.368 163.424 184.464 164.072L184.544 164.168C184.96 163.968 185.36 163.704 185.736 163.4H189.896ZM187.304 165.968C187.736 166.232 188.248 166.736 188.4 167.176C189.072 167.544 189.392 166.16 187.376 165.896L187.304 165.968ZM185.512 166.256C185.44 166.856 184.984 167.36 184.608 167.552C184.432 167.648 184.304 167.832 184.376 168.024C184.48 168.24 184.792 168.24 185.032 168.08C185.4 167.856 185.832 167.224 185.648 166.272L185.512 166.256ZM189.824 166.92H189.72C189.616 167.344 189.52 167.672 189.448 167.8C189.4 167.872 189.368 167.896 189.248 167.904C189.128 167.912 188.784 167.912 188.36 167.912H187.376C187.032 167.912 186.992 167.88 186.992 167.768V166.36C187.144 166.336 187.224 166.264 187.232 166.168L186.368 166.08V167.888C186.368 168.368 186.52 168.48 187.28 168.48H188.32C189.808 168.48 190.104 168.376 190.104 168.088C190.104 167.96 190.04 167.896 189.84 167.824L189.824 166.92ZM189.736 166.272C190.272 166.688 190.888 167.408 191.048 168.008C191.784 168.496 192.232 166.864 189.808 166.208L189.736 166.272Z" fill="black"/>
</svg>
