<svg width="89" height="117" viewBox="0 0 89 117" fill="none" xmlns="http://www.w3.org/2000/svg">
<path d="M8.576 6.624L1.088 5.472V0.672001H13.856C16.16 0.672001 18.432 0.576001 20.672 0.384001C24.128 0.128001 27.392 0 30.464 0C39.744 0.064 46.304 1.792 50.144 5.184C53.984 8.576 55.904 13.696 55.904 20.544C55.904 25.664 54.72 30.112 52.352 33.888C49.984 37.664 46.688 40.544 42.464 42.528C38.304 44.512 33.504 45.504 28.064 45.504C26.208 45.504 24.32 45.472 22.4 45.408C20.48 45.28 19.296 45.184 18.848 45.12V66.24L32 67.296V72H0.608002V67.296L8.576 66.336V6.624ZM18.848 39.84C20.64 40.16 23.712 40.32 28.064 40.32C33.12 40.32 37.216 38.784 40.352 35.712C43.552 32.64 45.152 27.616 45.152 20.64C45.152 15.136 43.776 11.2 41.024 8.832C38.272 6.4 33.984 5.184 28.16 5.184C26.112 5.184 23.936 5.312 21.632 5.568C20.224 5.696 19.296 5.76 18.848 5.76V39.84Z" fill="#DADD56"/>
<path d="M51.84 50.76L35.328 51.336L31.968 71.4H25.632L27.264 45.672H87.072L88.224 71.4H82.176L79.008 51.336L62.4 50.76V111.336L76.032 112.296V117H39.36V112.296L51.84 111.336V50.76Z" fill="#DADD56"/>
</svg>
